<mxfile host="app.diagrams.net" modified="2021-07-22T04:28:29.013Z" agent="5.0 (Windows NT 6.3; Win64; x64) AppleWebKit/537.36 (KHTML, like Gecko) Chrome/92.0.4515.107 Safari/537.36" etag="4XMrvtrbFOdgLRmd0TZI" version="14.9.1" type="github">
  <diagram id="Tq5xrp3OgVaKrlStM5Dh" name="Page-1">
    <mxGraphModel dx="1422" dy="762" grid="1" gridSize="10" guides="1" tooltips="1" connect="1" arrows="1" fold="1" page="1" pageScale="1" pageWidth="827" pageHeight="1169" math="0" shadow="0">
      <root>
        <mxCell id="0" />
        <mxCell id="1" parent="0" />
        <mxCell id="-Tg5e1JQhwsckxDDgrO--1" value="Users" style="shape=table;startSize=30;container=1;collapsible=1;childLayout=tableLayout;fixedRows=1;rowLines=0;fontStyle=1;align=center;resizeLast=1;" vertex="1" parent="1">
          <mxGeometry x="55" y="220" width="220" height="220" as="geometry" />
        </mxCell>
        <mxCell id="-Tg5e1JQhwsckxDDgrO--2" value="" style="shape=partialRectangle;collapsible=0;dropTarget=0;pointerEvents=0;fillColor=none;top=0;left=0;bottom=1;right=0;points=[[0,0.5],[1,0.5]];portConstraint=eastwest;" vertex="1" parent="-Tg5e1JQhwsckxDDgrO--1">
          <mxGeometry y="30" width="220" height="30" as="geometry" />
        </mxCell>
        <mxCell id="-Tg5e1JQhwsckxDDgrO--3" value="PK" style="shape=partialRectangle;connectable=0;fillColor=none;top=0;left=0;bottom=0;right=0;fontStyle=1;overflow=hidden;" vertex="1" parent="-Tg5e1JQhwsckxDDgrO--2">
          <mxGeometry width="70" height="30" as="geometry" />
        </mxCell>
        <mxCell id="-Tg5e1JQhwsckxDDgrO--4" value="id: Int" style="shape=partialRectangle;connectable=0;fillColor=none;top=0;left=0;bottom=0;right=0;align=left;spacingLeft=6;fontStyle=5;overflow=hidden;" vertex="1" parent="-Tg5e1JQhwsckxDDgrO--2">
          <mxGeometry x="70" width="150" height="30" as="geometry" />
        </mxCell>
        <mxCell id="-Tg5e1JQhwsckxDDgrO--17" value="" style="shape=partialRectangle;collapsible=0;dropTarget=0;pointerEvents=0;fillColor=none;top=0;left=0;bottom=0;right=0;points=[[0,0.5],[1,0.5]];portConstraint=eastwest;" vertex="1" parent="-Tg5e1JQhwsckxDDgrO--1">
          <mxGeometry y="60" width="220" height="30" as="geometry" />
        </mxCell>
        <mxCell id="-Tg5e1JQhwsckxDDgrO--18" value="Uniue" style="shape=partialRectangle;connectable=0;fillColor=none;top=0;left=0;bottom=0;right=0;fontStyle=0;overflow=hidden;" vertex="1" parent="-Tg5e1JQhwsckxDDgrO--17">
          <mxGeometry width="70" height="30" as="geometry" />
        </mxCell>
        <mxCell id="-Tg5e1JQhwsckxDDgrO--19" value="Ðµmail: String" style="shape=partialRectangle;connectable=0;fillColor=none;top=0;left=0;bottom=0;right=0;align=left;spacingLeft=6;fontStyle=0;overflow=hidden;" vertex="1" parent="-Tg5e1JQhwsckxDDgrO--17">
          <mxGeometry x="70" width="150" height="30" as="geometry" />
        </mxCell>
        <mxCell id="-Tg5e1JQhwsckxDDgrO--5" value="" style="shape=partialRectangle;collapsible=0;dropTarget=0;pointerEvents=0;fillColor=none;top=0;left=0;bottom=0;right=0;points=[[0,0.5],[1,0.5]];portConstraint=eastwest;" vertex="1" parent="-Tg5e1JQhwsckxDDgrO--1">
          <mxGeometry y="90" width="220" height="30" as="geometry" />
        </mxCell>
        <mxCell id="-Tg5e1JQhwsckxDDgrO--6" value="" style="shape=partialRectangle;connectable=0;fillColor=none;top=0;left=0;bottom=0;right=0;editable=1;overflow=hidden;" vertex="1" parent="-Tg5e1JQhwsckxDDgrO--5">
          <mxGeometry width="70" height="30" as="geometry" />
        </mxCell>
        <mxCell id="-Tg5e1JQhwsckxDDgrO--7" value="first_name: String" style="shape=partialRectangle;connectable=0;fillColor=none;top=0;left=0;bottom=0;right=0;align=left;spacingLeft=6;overflow=hidden;" vertex="1" parent="-Tg5e1JQhwsckxDDgrO--5">
          <mxGeometry x="70" width="150" height="30" as="geometry" />
        </mxCell>
        <mxCell id="-Tg5e1JQhwsckxDDgrO--8" value="" style="shape=partialRectangle;collapsible=0;dropTarget=0;pointerEvents=0;fillColor=none;top=0;left=0;bottom=0;right=0;points=[[0,0.5],[1,0.5]];portConstraint=eastwest;" vertex="1" parent="-Tg5e1JQhwsckxDDgrO--1">
          <mxGeometry y="120" width="220" height="30" as="geometry" />
        </mxCell>
        <mxCell id="-Tg5e1JQhwsckxDDgrO--9" value="" style="shape=partialRectangle;connectable=0;fillColor=none;top=0;left=0;bottom=0;right=0;editable=1;overflow=hidden;" vertex="1" parent="-Tg5e1JQhwsckxDDgrO--8">
          <mxGeometry width="70" height="30" as="geometry" />
        </mxCell>
        <mxCell id="-Tg5e1JQhwsckxDDgrO--10" value="last_name: String" style="shape=partialRectangle;connectable=0;fillColor=none;top=0;left=0;bottom=0;right=0;align=left;spacingLeft=6;overflow=hidden;" vertex="1" parent="-Tg5e1JQhwsckxDDgrO--8">
          <mxGeometry x="70" width="150" height="30" as="geometry" />
        </mxCell>
        <mxCell id="-Tg5e1JQhwsckxDDgrO--14" value="" style="shape=partialRectangle;collapsible=0;dropTarget=0;pointerEvents=0;fillColor=none;top=0;left=0;bottom=0;right=0;points=[[0,0.5],[1,0.5]];portConstraint=eastwest;" vertex="1" parent="-Tg5e1JQhwsckxDDgrO--1">
          <mxGeometry y="150" width="220" height="30" as="geometry" />
        </mxCell>
        <mxCell id="-Tg5e1JQhwsckxDDgrO--15" value="" style="shape=partialRectangle;connectable=0;fillColor=none;top=0;left=0;bottom=0;right=0;editable=1;overflow=hidden;" vertex="1" parent="-Tg5e1JQhwsckxDDgrO--14">
          <mxGeometry width="70" height="30" as="geometry" />
        </mxCell>
        <mxCell id="-Tg5e1JQhwsckxDDgrO--16" value="avatar: String?" style="shape=partialRectangle;connectable=0;fillColor=none;top=0;left=0;bottom=0;right=0;align=left;spacingLeft=6;overflow=hidden;" vertex="1" parent="-Tg5e1JQhwsckxDDgrO--14">
          <mxGeometry x="70" width="150" height="30" as="geometry" />
        </mxCell>
        <mxCell id="-Tg5e1JQhwsckxDDgrO--11" value="" style="shape=partialRectangle;collapsible=0;dropTarget=0;pointerEvents=0;fillColor=none;top=0;left=0;bottom=0;right=0;points=[[0,0.5],[1,0.5]];portConstraint=eastwest;" vertex="1" parent="-Tg5e1JQhwsckxDDgrO--1">
          <mxGeometry y="180" width="220" height="30" as="geometry" />
        </mxCell>
        <mxCell id="-Tg5e1JQhwsckxDDgrO--12" value="" style="shape=partialRectangle;connectable=0;fillColor=none;top=0;left=0;bottom=0;right=0;editable=1;overflow=hidden;" vertex="1" parent="-Tg5e1JQhwsckxDDgrO--11">
          <mxGeometry width="70" height="30" as="geometry" />
        </mxCell>
        <mxCell id="-Tg5e1JQhwsckxDDgrO--13" value="password_hash: String" style="shape=partialRectangle;connectable=0;fillColor=none;top=0;left=0;bottom=0;right=0;align=left;spacingLeft=6;overflow=hidden;" vertex="1" parent="-Tg5e1JQhwsckxDDgrO--11">
          <mxGeometry x="70" width="150" height="30" as="geometry" />
        </mxCell>
        <mxCell id="-Tg5e1JQhwsckxDDgrO--20" value="Products" style="shape=table;startSize=30;container=1;collapsible=1;childLayout=tableLayout;fixedRows=1;rowLines=0;fontStyle=1;align=center;resizeLast=1;" vertex="1" parent="1">
          <mxGeometry x="560" y="410" width="180" height="145" as="geometry" />
        </mxCell>
        <mxCell id="-Tg5e1JQhwsckxDDgrO--21" value="" style="shape=partialRectangle;collapsible=0;dropTarget=0;pointerEvents=0;fillColor=none;top=0;left=0;bottom=1;right=0;points=[[0,0.5],[1,0.5]];portConstraint=eastwest;" vertex="1" parent="-Tg5e1JQhwsckxDDgrO--20">
          <mxGeometry y="30" width="180" height="30" as="geometry" />
        </mxCell>
        <mxCell id="-Tg5e1JQhwsckxDDgrO--22" value="PK" style="shape=partialRectangle;connectable=0;fillColor=none;top=0;left=0;bottom=0;right=0;fontStyle=1;overflow=hidden;" vertex="1" parent="-Tg5e1JQhwsckxDDgrO--21">
          <mxGeometry width="30" height="30" as="geometry" />
        </mxCell>
        <mxCell id="-Tg5e1JQhwsckxDDgrO--23" value="id: Int" style="shape=partialRectangle;connectable=0;fillColor=none;top=0;left=0;bottom=0;right=0;align=left;spacingLeft=6;fontStyle=5;overflow=hidden;" vertex="1" parent="-Tg5e1JQhwsckxDDgrO--21">
          <mxGeometry x="30" width="150" height="30" as="geometry" />
        </mxCell>
        <mxCell id="-Tg5e1JQhwsckxDDgrO--24" value="" style="shape=partialRectangle;collapsible=0;dropTarget=0;pointerEvents=0;fillColor=none;top=0;left=0;bottom=0;right=0;points=[[0,0.5],[1,0.5]];portConstraint=eastwest;" vertex="1" parent="-Tg5e1JQhwsckxDDgrO--20">
          <mxGeometry y="60" width="180" height="30" as="geometry" />
        </mxCell>
        <mxCell id="-Tg5e1JQhwsckxDDgrO--25" value="" style="shape=partialRectangle;connectable=0;fillColor=none;top=0;left=0;bottom=0;right=0;editable=1;overflow=hidden;" vertex="1" parent="-Tg5e1JQhwsckxDDgrO--24">
          <mxGeometry width="30" height="30" as="geometry" />
        </mxCell>
        <mxCell id="-Tg5e1JQhwsckxDDgrO--26" value="title: String" style="shape=partialRectangle;connectable=0;fillColor=none;top=0;left=0;bottom=0;right=0;align=left;spacingLeft=6;overflow=hidden;" vertex="1" parent="-Tg5e1JQhwsckxDDgrO--24">
          <mxGeometry x="30" width="150" height="30" as="geometry" />
        </mxCell>
        <mxCell id="-Tg5e1JQhwsckxDDgrO--27" value="" style="shape=partialRectangle;collapsible=0;dropTarget=0;pointerEvents=0;fillColor=none;top=0;left=0;bottom=0;right=0;points=[[0,0.5],[1,0.5]];portConstraint=eastwest;" vertex="1" parent="-Tg5e1JQhwsckxDDgrO--20">
          <mxGeometry y="90" width="180" height="30" as="geometry" />
        </mxCell>
        <mxCell id="-Tg5e1JQhwsckxDDgrO--28" value="" style="shape=partialRectangle;connectable=0;fillColor=none;top=0;left=0;bottom=0;right=0;editable=1;overflow=hidden;" vertex="1" parent="-Tg5e1JQhwsckxDDgrO--27">
          <mxGeometry width="30" height="30" as="geometry" />
        </mxCell>
        <mxCell id="-Tg5e1JQhwsckxDDgrO--29" value="avatar: String?" style="shape=partialRectangle;connectable=0;fillColor=none;top=0;left=0;bottom=0;right=0;align=left;spacingLeft=6;overflow=hidden;" vertex="1" parent="-Tg5e1JQhwsckxDDgrO--27">
          <mxGeometry x="30" width="150" height="30" as="geometry" />
        </mxCell>
        <mxCell id="-Tg5e1JQhwsckxDDgrO--30" value="" style="shape=partialRectangle;collapsible=0;dropTarget=0;pointerEvents=0;fillColor=none;top=0;left=0;bottom=0;right=0;points=[[0,0.5],[1,0.5]];portConstraint=eastwest;" vertex="1" parent="-Tg5e1JQhwsckxDDgrO--20">
          <mxGeometry y="120" width="180" height="25" as="geometry" />
        </mxCell>
        <mxCell id="-Tg5e1JQhwsckxDDgrO--31" value="" style="shape=partialRectangle;connectable=0;fillColor=none;top=0;left=0;bottom=0;right=0;editable=1;overflow=hidden;" vertex="1" parent="-Tg5e1JQhwsckxDDgrO--30">
          <mxGeometry width="30" height="25" as="geometry" />
        </mxCell>
        <mxCell id="-Tg5e1JQhwsckxDDgrO--32" value="description: String" style="shape=partialRectangle;connectable=0;fillColor=none;top=0;left=0;bottom=0;right=0;align=left;spacingLeft=6;overflow=hidden;" vertex="1" parent="-Tg5e1JQhwsckxDDgrO--30">
          <mxGeometry x="30" width="150" height="25" as="geometry" />
        </mxCell>
        <mxCell id="-Tg5e1JQhwsckxDDgrO--33" value="Prices" style="shape=table;startSize=30;container=1;collapsible=1;childLayout=tableLayout;fixedRows=1;rowLines=0;fontStyle=1;align=center;resizeLast=1;" vertex="1" parent="1">
          <mxGeometry x="550" y="770" width="180" height="160" as="geometry" />
        </mxCell>
        <mxCell id="-Tg5e1JQhwsckxDDgrO--34" value="" style="shape=partialRectangle;collapsible=0;dropTarget=0;pointerEvents=0;fillColor=none;top=0;left=0;bottom=1;right=0;points=[[0,0.5],[1,0.5]];portConstraint=eastwest;" vertex="1" parent="-Tg5e1JQhwsckxDDgrO--33">
          <mxGeometry y="30" width="180" height="30" as="geometry" />
        </mxCell>
        <mxCell id="-Tg5e1JQhwsckxDDgrO--35" value="PK" style="shape=partialRectangle;connectable=0;fillColor=none;top=0;left=0;bottom=0;right=0;fontStyle=1;overflow=hidden;" vertex="1" parent="-Tg5e1JQhwsckxDDgrO--34">
          <mxGeometry width="30" height="30" as="geometry" />
        </mxCell>
        <mxCell id="-Tg5e1JQhwsckxDDgrO--36" value="id: Int" style="shape=partialRectangle;connectable=0;fillColor=none;top=0;left=0;bottom=0;right=0;align=left;spacingLeft=6;fontStyle=5;overflow=hidden;" vertex="1" parent="-Tg5e1JQhwsckxDDgrO--34">
          <mxGeometry x="30" width="150" height="30" as="geometry" />
        </mxCell>
        <mxCell id="-Tg5e1JQhwsckxDDgrO--46" value="" style="shape=partialRectangle;collapsible=0;dropTarget=0;pointerEvents=0;fillColor=none;top=0;left=0;bottom=0;right=0;points=[[0,0.5],[1,0.5]];portConstraint=eastwest;" vertex="1" parent="-Tg5e1JQhwsckxDDgrO--33">
          <mxGeometry y="60" width="180" height="30" as="geometry" />
        </mxCell>
        <mxCell id="-Tg5e1JQhwsckxDDgrO--47" value="FK" style="shape=partialRectangle;connectable=0;fillColor=none;top=0;left=0;bottom=0;right=0;fontStyle=0;overflow=hidden;" vertex="1" parent="-Tg5e1JQhwsckxDDgrO--46">
          <mxGeometry width="30" height="30" as="geometry" />
        </mxCell>
        <mxCell id="-Tg5e1JQhwsckxDDgrO--48" value="product_id" style="shape=partialRectangle;connectable=0;fillColor=none;top=0;left=0;bottom=0;right=0;align=left;spacingLeft=6;fontStyle=0;overflow=hidden;" vertex="1" parent="-Tg5e1JQhwsckxDDgrO--46">
          <mxGeometry x="30" width="150" height="30" as="geometry" />
        </mxCell>
        <mxCell id="-Tg5e1JQhwsckxDDgrO--40" value="" style="shape=partialRectangle;collapsible=0;dropTarget=0;pointerEvents=0;fillColor=none;top=0;left=0;bottom=0;right=0;points=[[0,0.5],[1,0.5]];portConstraint=eastwest;" vertex="1" parent="-Tg5e1JQhwsckxDDgrO--33">
          <mxGeometry y="90" width="180" height="30" as="geometry" />
        </mxCell>
        <mxCell id="-Tg5e1JQhwsckxDDgrO--41" value="" style="shape=partialRectangle;connectable=0;fillColor=none;top=0;left=0;bottom=0;right=0;editable=1;overflow=hidden;" vertex="1" parent="-Tg5e1JQhwsckxDDgrO--40">
          <mxGeometry width="30" height="30" as="geometry" />
        </mxCell>
        <mxCell id="-Tg5e1JQhwsckxDDgrO--42" value="price: BigDecimal" style="shape=partialRectangle;connectable=0;fillColor=none;top=0;left=0;bottom=0;right=0;align=left;spacingLeft=6;overflow=hidden;" vertex="1" parent="-Tg5e1JQhwsckxDDgrO--40">
          <mxGeometry x="30" width="150" height="30" as="geometry" />
        </mxCell>
        <mxCell id="-Tg5e1JQhwsckxDDgrO--43" value="" style="shape=partialRectangle;collapsible=0;dropTarget=0;pointerEvents=0;fillColor=none;top=0;left=0;bottom=0;right=0;points=[[0,0.5],[1,0.5]];portConstraint=eastwest;" vertex="1" parent="-Tg5e1JQhwsckxDDgrO--33">
          <mxGeometry y="120" width="180" height="40" as="geometry" />
        </mxCell>
        <mxCell id="-Tg5e1JQhwsckxDDgrO--44" value="" style="shape=partialRectangle;connectable=0;fillColor=none;top=0;left=0;bottom=0;right=0;editable=1;overflow=hidden;" vertex="1" parent="-Tg5e1JQhwsckxDDgrO--43">
          <mxGeometry width="30" height="40" as="geometry" />
        </mxCell>
        <mxCell id="-Tg5e1JQhwsckxDDgrO--45" value="create_at: Instant" style="shape=partialRectangle;connectable=0;fillColor=none;top=0;left=0;bottom=0;right=0;align=left;spacingLeft=6;overflow=hidden;" vertex="1" parent="-Tg5e1JQhwsckxDDgrO--43">
          <mxGeometry x="30" width="150" height="40" as="geometry" />
        </mxCell>
        <mxCell id="-Tg5e1JQhwsckxDDgrO--49" value="" style="edgeStyle=entityRelationEdgeStyle;fontSize=12;html=1;endArrow=ERoneToMany;exitX=1;exitY=0.5;exitDx=0;exitDy=0;" edge="1" parent="1" source="-Tg5e1JQhwsckxDDgrO--21">
          <mxGeometry width="100" height="100" relative="1" as="geometry">
            <mxPoint x="330" y="305" as="sourcePoint" />
            <mxPoint x="730" y="845" as="targetPoint" />
          </mxGeometry>
        </mxCell>
        <mxCell id="-Tg5e1JQhwsckxDDgrO--50" value="Purchases" style="shape=table;startSize=30;container=1;collapsible=1;childLayout=tableLayout;fixedRows=1;rowLines=0;fontStyle=1;align=center;resizeLast=1;" vertex="1" parent="1">
          <mxGeometry x="90" y="480" width="180" height="180" as="geometry" />
        </mxCell>
        <mxCell id="-Tg5e1JQhwsckxDDgrO--51" value="" style="shape=partialRectangle;collapsible=0;dropTarget=0;pointerEvents=0;fillColor=none;top=0;left=0;bottom=1;right=0;points=[[0,0.5],[1,0.5]];portConstraint=eastwest;" vertex="1" parent="-Tg5e1JQhwsckxDDgrO--50">
          <mxGeometry y="30" width="180" height="30" as="geometry" />
        </mxCell>
        <mxCell id="-Tg5e1JQhwsckxDDgrO--52" value="PK" style="shape=partialRectangle;connectable=0;fillColor=none;top=0;left=0;bottom=0;right=0;fontStyle=1;overflow=hidden;" vertex="1" parent="-Tg5e1JQhwsckxDDgrO--51">
          <mxGeometry width="30" height="30" as="geometry" />
        </mxCell>
        <mxCell id="-Tg5e1JQhwsckxDDgrO--53" value="id: Int" style="shape=partialRectangle;connectable=0;fillColor=none;top=0;left=0;bottom=0;right=0;align=left;spacingLeft=6;fontStyle=5;overflow=hidden;" vertex="1" parent="-Tg5e1JQhwsckxDDgrO--51">
          <mxGeometry x="30" width="150" height="30" as="geometry" />
        </mxCell>
        <mxCell id="-Tg5e1JQhwsckxDDgrO--67" value="" style="shape=partialRectangle;collapsible=0;dropTarget=0;pointerEvents=0;fillColor=none;top=0;left=0;bottom=0;right=0;points=[[0,0.5],[1,0.5]];portConstraint=eastwest;" vertex="1" parent="-Tg5e1JQhwsckxDDgrO--50">
          <mxGeometry y="60" width="180" height="30" as="geometry" />
        </mxCell>
        <mxCell id="-Tg5e1JQhwsckxDDgrO--68" value="FK" style="shape=partialRectangle;connectable=0;fillColor=none;top=0;left=0;bottom=0;right=0;fontStyle=0;overflow=hidden;" vertex="1" parent="-Tg5e1JQhwsckxDDgrO--67">
          <mxGeometry width="30" height="30" as="geometry" />
        </mxCell>
        <mxCell id="-Tg5e1JQhwsckxDDgrO--69" value="user_id: Int" style="shape=partialRectangle;connectable=0;fillColor=none;top=0;left=0;bottom=0;right=0;align=left;spacingLeft=6;fontStyle=0;overflow=hidden;" vertex="1" parent="-Tg5e1JQhwsckxDDgrO--67">
          <mxGeometry x="30" width="150" height="30" as="geometry" />
        </mxCell>
        <mxCell id="-Tg5e1JQhwsckxDDgrO--95" value="" style="shape=partialRectangle;collapsible=0;dropTarget=0;pointerEvents=0;fillColor=none;top=0;left=0;bottom=0;right=0;points=[[0,0.5],[1,0.5]];portConstraint=eastwest;" vertex="1" parent="-Tg5e1JQhwsckxDDgrO--50">
          <mxGeometry y="90" width="180" height="30" as="geometry" />
        </mxCell>
        <mxCell id="-Tg5e1JQhwsckxDDgrO--96" value="FK" style="shape=partialRectangle;connectable=0;fillColor=none;top=0;left=0;bottom=0;right=0;fontStyle=0;overflow=hidden;" vertex="1" parent="-Tg5e1JQhwsckxDDgrO--95">
          <mxGeometry width="30" height="30" as="geometry" />
        </mxCell>
        <mxCell id="-Tg5e1JQhwsckxDDgrO--97" value="status_id: Int" style="shape=partialRectangle;connectable=0;fillColor=none;top=0;left=0;bottom=0;right=0;align=left;spacingLeft=6;fontStyle=0;overflow=hidden;" vertex="1" parent="-Tg5e1JQhwsckxDDgrO--95">
          <mxGeometry x="30" width="150" height="30" as="geometry" />
        </mxCell>
        <mxCell id="-Tg5e1JQhwsckxDDgrO--57" value="" style="shape=partialRectangle;collapsible=0;dropTarget=0;pointerEvents=0;fillColor=none;top=0;left=0;bottom=0;right=0;points=[[0,0.5],[1,0.5]];portConstraint=eastwest;" vertex="1" parent="-Tg5e1JQhwsckxDDgrO--50">
          <mxGeometry y="120" width="180" height="30" as="geometry" />
        </mxCell>
        <mxCell id="-Tg5e1JQhwsckxDDgrO--58" value="" style="shape=partialRectangle;connectable=0;fillColor=none;top=0;left=0;bottom=0;right=0;editable=1;overflow=hidden;" vertex="1" parent="-Tg5e1JQhwsckxDDgrO--57">
          <mxGeometry width="30" height="30" as="geometry" />
        </mxCell>
        <mxCell id="-Tg5e1JQhwsckxDDgrO--59" value="created_at: Instant" style="shape=partialRectangle;connectable=0;fillColor=none;top=0;left=0;bottom=0;right=0;align=left;spacingLeft=6;overflow=hidden;" vertex="1" parent="-Tg5e1JQhwsckxDDgrO--57">
          <mxGeometry x="30" width="150" height="30" as="geometry" />
        </mxCell>
        <mxCell id="-Tg5e1JQhwsckxDDgrO--54" value="" style="shape=partialRectangle;collapsible=0;dropTarget=0;pointerEvents=0;fillColor=none;top=0;left=0;bottom=0;right=0;points=[[0,0.5],[1,0.5]];portConstraint=eastwest;" vertex="1" parent="-Tg5e1JQhwsckxDDgrO--50">
          <mxGeometry y="150" width="180" height="30" as="geometry" />
        </mxCell>
        <mxCell id="-Tg5e1JQhwsckxDDgrO--55" value="" style="shape=partialRectangle;connectable=0;fillColor=none;top=0;left=0;bottom=0;right=0;editable=1;overflow=hidden;" vertex="1" parent="-Tg5e1JQhwsckxDDgrO--54">
          <mxGeometry width="30" height="30" as="geometry" />
        </mxCell>
        <mxCell id="-Tg5e1JQhwsckxDDgrO--56" value="payed_at: Instant?" style="shape=partialRectangle;connectable=0;fillColor=none;top=0;left=0;bottom=0;right=0;align=left;spacingLeft=6;overflow=hidden;" vertex="1" parent="-Tg5e1JQhwsckxDDgrO--54">
          <mxGeometry x="30" width="150" height="30" as="geometry" />
        </mxCell>
        <mxCell id="-Tg5e1JQhwsckxDDgrO--82" value="PurchaseStatuses" style="shape=table;startSize=30;container=1;collapsible=1;childLayout=tableLayout;fixedRows=1;rowLines=0;fontStyle=1;align=center;resizeLast=1;" vertex="1" parent="1">
          <mxGeometry x="360" y="660" width="180" height="100" as="geometry" />
        </mxCell>
        <mxCell id="-Tg5e1JQhwsckxDDgrO--83" value="" style="shape=partialRectangle;collapsible=0;dropTarget=0;pointerEvents=0;fillColor=none;top=0;left=0;bottom=1;right=0;points=[[0,0.5],[1,0.5]];portConstraint=eastwest;" vertex="1" parent="-Tg5e1JQhwsckxDDgrO--82">
          <mxGeometry y="30" width="180" height="30" as="geometry" />
        </mxCell>
        <mxCell id="-Tg5e1JQhwsckxDDgrO--84" value="PK" style="shape=partialRectangle;connectable=0;fillColor=none;top=0;left=0;bottom=0;right=0;fontStyle=1;overflow=hidden;" vertex="1" parent="-Tg5e1JQhwsckxDDgrO--83">
          <mxGeometry width="30" height="30" as="geometry" />
        </mxCell>
        <mxCell id="-Tg5e1JQhwsckxDDgrO--85" value="id: Int" style="shape=partialRectangle;connectable=0;fillColor=none;top=0;left=0;bottom=0;right=0;align=left;spacingLeft=6;fontStyle=5;overflow=hidden;" vertex="1" parent="-Tg5e1JQhwsckxDDgrO--83">
          <mxGeometry x="30" width="150" height="30" as="geometry" />
        </mxCell>
        <mxCell id="-Tg5e1JQhwsckxDDgrO--86" value="" style="shape=partialRectangle;collapsible=0;dropTarget=0;pointerEvents=0;fillColor=none;top=0;left=0;bottom=0;right=0;points=[[0,0.5],[1,0.5]];portConstraint=eastwest;" vertex="1" parent="-Tg5e1JQhwsckxDDgrO--82">
          <mxGeometry y="60" width="180" height="30" as="geometry" />
        </mxCell>
        <mxCell id="-Tg5e1JQhwsckxDDgrO--87" value="" style="shape=partialRectangle;connectable=0;fillColor=none;top=0;left=0;bottom=0;right=0;editable=1;overflow=hidden;" vertex="1" parent="-Tg5e1JQhwsckxDDgrO--86">
          <mxGeometry width="30" height="30" as="geometry" />
        </mxCell>
        <mxCell id="-Tg5e1JQhwsckxDDgrO--88" value="title: String" style="shape=partialRectangle;connectable=0;fillColor=none;top=0;left=0;bottom=0;right=0;align=left;spacingLeft=6;overflow=hidden;" vertex="1" parent="-Tg5e1JQhwsckxDDgrO--86">
          <mxGeometry x="30" width="150" height="30" as="geometry" />
        </mxCell>
        <mxCell id="-Tg5e1JQhwsckxDDgrO--98" value="" style="edgeStyle=entityRelationEdgeStyle;fontSize=12;html=1;endArrow=ERoneToMany;exitX=1;exitY=0.5;exitDx=0;exitDy=0;" edge="1" parent="1" source="-Tg5e1JQhwsckxDDgrO--2" target="-Tg5e1JQhwsckxDDgrO--67">
          <mxGeometry width="100" height="100" relative="1" as="geometry">
            <mxPoint x="250" y="900" as="sourcePoint" />
            <mxPoint x="350" y="800" as="targetPoint" />
          </mxGeometry>
        </mxCell>
        <mxCell id="-Tg5e1JQhwsckxDDgrO--99" value="" style="edgeStyle=entityRelationEdgeStyle;fontSize=12;html=1;endArrow=ERoneToMany;exitX=0;exitY=0.5;exitDx=0;exitDy=0;entryX=1;entryY=0.5;entryDx=0;entryDy=0;" edge="1" parent="1" source="-Tg5e1JQhwsckxDDgrO--83" target="-Tg5e1JQhwsckxDDgrO--95">
          <mxGeometry width="100" height="100" relative="1" as="geometry">
            <mxPoint x="310" y="810" as="sourcePoint" />
            <mxPoint x="410" y="710" as="targetPoint" />
          </mxGeometry>
        </mxCell>
        <mxCell id="-Tg5e1JQhwsckxDDgrO--100" value="PurchasePrices" style="shape=table;startSize=30;container=1;collapsible=1;childLayout=tableLayout;fixedRows=1;rowLines=0;fontStyle=1;align=center;resizeLast=1;" vertex="1" parent="1">
          <mxGeometry x="20" y="720" width="255" height="150" as="geometry" />
        </mxCell>
        <mxCell id="-Tg5e1JQhwsckxDDgrO--101" value="" style="shape=partialRectangle;collapsible=0;dropTarget=0;pointerEvents=0;fillColor=none;top=0;left=0;bottom=1;right=0;points=[[0,0.5],[1,0.5]];portConstraint=eastwest;" vertex="1" parent="-Tg5e1JQhwsckxDDgrO--100">
          <mxGeometry y="30" width="255" height="30" as="geometry" />
        </mxCell>
        <mxCell id="-Tg5e1JQhwsckxDDgrO--102" value="PK" style="shape=partialRectangle;connectable=0;fillColor=none;top=0;left=0;bottom=0;right=0;fontStyle=1;overflow=hidden;" vertex="1" parent="-Tg5e1JQhwsckxDDgrO--101">
          <mxGeometry width="75" height="30" as="geometry" />
        </mxCell>
        <mxCell id="-Tg5e1JQhwsckxDDgrO--103" value="id: Int" style="shape=partialRectangle;connectable=0;fillColor=none;top=0;left=0;bottom=0;right=0;align=left;spacingLeft=6;fontStyle=5;overflow=hidden;" vertex="1" parent="-Tg5e1JQhwsckxDDgrO--101">
          <mxGeometry x="75" width="180" height="30" as="geometry" />
        </mxCell>
        <mxCell id="-Tg5e1JQhwsckxDDgrO--104" value="" style="shape=partialRectangle;collapsible=0;dropTarget=0;pointerEvents=0;fillColor=none;top=0;left=0;bottom=0;right=0;points=[[0,0.5],[1,0.5]];portConstraint=eastwest;" vertex="1" parent="-Tg5e1JQhwsckxDDgrO--100">
          <mxGeometry y="60" width="255" height="30" as="geometry" />
        </mxCell>
        <mxCell id="-Tg5e1JQhwsckxDDgrO--105" value="FK&#xa;Unique" style="shape=partialRectangle;connectable=0;fillColor=none;top=0;left=0;bottom=0;right=0;editable=1;overflow=hidden;" vertex="1" parent="-Tg5e1JQhwsckxDDgrO--104">
          <mxGeometry width="75" height="30" as="geometry" />
        </mxCell>
        <mxCell id="-Tg5e1JQhwsckxDDgrO--106" value="purchase_id: Int" style="shape=partialRectangle;connectable=0;fillColor=none;top=0;left=0;bottom=0;right=0;align=left;spacingLeft=6;overflow=hidden;" vertex="1" parent="-Tg5e1JQhwsckxDDgrO--104">
          <mxGeometry x="75" width="180" height="30" as="geometry" />
        </mxCell>
        <mxCell id="-Tg5e1JQhwsckxDDgrO--107" value="" style="shape=partialRectangle;collapsible=0;dropTarget=0;pointerEvents=0;fillColor=none;top=0;left=0;bottom=0;right=0;points=[[0,0.5],[1,0.5]];portConstraint=eastwest;" vertex="1" parent="-Tg5e1JQhwsckxDDgrO--100">
          <mxGeometry y="90" width="255" height="30" as="geometry" />
        </mxCell>
        <mxCell id="-Tg5e1JQhwsckxDDgrO--108" value="FK&#xa;Unique" style="shape=partialRectangle;connectable=0;fillColor=none;top=0;left=0;bottom=0;right=0;editable=1;overflow=hidden;" vertex="1" parent="-Tg5e1JQhwsckxDDgrO--107">
          <mxGeometry width="75" height="30" as="geometry" />
        </mxCell>
        <mxCell id="-Tg5e1JQhwsckxDDgrO--109" value="price_id: Int" style="shape=partialRectangle;connectable=0;fillColor=none;top=0;left=0;bottom=0;right=0;align=left;spacingLeft=6;overflow=hidden;" vertex="1" parent="-Tg5e1JQhwsckxDDgrO--107">
          <mxGeometry x="75" width="180" height="30" as="geometry" />
        </mxCell>
        <mxCell id="-Tg5e1JQhwsckxDDgrO--110" value="" style="shape=partialRectangle;collapsible=0;dropTarget=0;pointerEvents=0;fillColor=none;top=0;left=0;bottom=0;right=0;points=[[0,0.5],[1,0.5]];portConstraint=eastwest;" vertex="1" parent="-Tg5e1JQhwsckxDDgrO--100">
          <mxGeometry y="120" width="255" height="30" as="geometry" />
        </mxCell>
        <mxCell id="-Tg5e1JQhwsckxDDgrO--111" value="" style="shape=partialRectangle;connectable=0;fillColor=none;top=0;left=0;bottom=0;right=0;editable=1;overflow=hidden;" vertex="1" parent="-Tg5e1JQhwsckxDDgrO--110">
          <mxGeometry width="75" height="30" as="geometry" />
        </mxCell>
        <mxCell id="-Tg5e1JQhwsckxDDgrO--112" value="count: Int" style="shape=partialRectangle;connectable=0;fillColor=none;top=0;left=0;bottom=0;right=0;align=left;spacingLeft=6;overflow=hidden;" vertex="1" parent="-Tg5e1JQhwsckxDDgrO--110">
          <mxGeometry x="75" width="180" height="30" as="geometry" />
        </mxCell>
        <mxCell id="-Tg5e1JQhwsckxDDgrO--113" value="" style="edgeStyle=entityRelationEdgeStyle;fontSize=12;html=1;endArrow=ERoneToMany;exitX=0;exitY=0.5;exitDx=0;exitDy=0;" edge="1" parent="1" source="-Tg5e1JQhwsckxDDgrO--34" target="-Tg5e1JQhwsckxDDgrO--107">
          <mxGeometry width="100" height="100" relative="1" as="geometry">
            <mxPoint x="530" y="970" as="sourcePoint" />
            <mxPoint x="630" y="870" as="targetPoint" />
          </mxGeometry>
        </mxCell>
        <mxCell id="-Tg5e1JQhwsckxDDgrO--114" value="" style="edgeStyle=entityRelationEdgeStyle;fontSize=12;html=1;endArrow=ERoneToMany;exitX=0;exitY=0.5;exitDx=0;exitDy=0;entryX=0;entryY=0.5;entryDx=0;entryDy=0;" edge="1" parent="1" source="-Tg5e1JQhwsckxDDgrO--51" target="-Tg5e1JQhwsckxDDgrO--104">
          <mxGeometry width="100" height="100" relative="1" as="geometry">
            <mxPoint x="620" y="800" as="sourcePoint" />
            <mxPoint x="720" y="700" as="targetPoint" />
          </mxGeometry>
        </mxCell>
      </root>
    </mxGraphModel>
  </diagram>
</mxfile>
